<svg width="360" height="305" viewBox="0 0 360 305" fill="none" xmlns="http://www.w3.org/2000/svg">
<path fill-rule="evenodd" clip-rule="evenodd" d="M173.427 268.604C162.278 271.602 150.556 273.2 138.462 273.2C64.2043 273.2 4 212.941 4 138.6C4 64.2587 64.2043 4 138.462 4C150.556 4 162.278 5.5985 173.427 8.59598C175.593 7.7925 177.785 7.0417 180 6.34515C166.887 2.22251 152.934 0 138.462 0C61.9913 0 0 62.0533 0 138.6C0 215.147 61.9913 277.2 138.462 277.2C152.934 277.2 166.887 274.978 180 270.855C177.785 270.158 175.593 269.408 173.427 268.604Z" fill="black"/>
<path fill-rule="evenodd" clip-rule="evenodd" d="M173.427 8.59598C120.674 28.1651 83.077 78.9875 83.077 138.6C83.077 198.212 120.674 249.035 173.427 268.604C230.733 253.198 272.923 200.833 272.923 138.6C272.923 76.3668 230.733 24.0025 173.427 8.59598ZM180 270.855C193.113 274.978 207.066 277.2 221.539 277.2C298.009 277.2 360 215.147 360 138.6C360 62.0533 298.009 0 221.539 0C207.066 0 193.113 2.22251 180 6.34516C236.175 24.0065 276.923 76.5399 276.923 138.6C276.923 200.66 236.175 253.194 180 270.855Z" fill="black"/>
<path d="M1.328 297V285.8H6.416C7.632 285.8 8.704 286.035 9.632 286.504C10.56 286.963 11.2853 287.608 11.808 288.44C12.3307 289.272 12.592 290.259 12.592 291.4C12.592 292.531 12.3307 293.517 11.808 294.36C11.2853 295.192 10.56 295.843 9.632 296.312C8.704 296.771 7.632 297 6.416 297H1.328ZM3.92 294.872H6.288C7.03467 294.872 7.68 294.733 8.224 294.456C8.77867 294.168 9.20533 293.763 9.504 293.24C9.81333 292.717 9.968 292.104 9.968 291.4C9.968 290.685 9.81333 290.072 9.504 289.56C9.20533 289.037 8.77867 288.637 8.224 288.36C7.68 288.072 7.03467 287.928 6.288 287.928H3.92V294.872ZM16.9308 290.312H22.3228V292.328H16.9308V290.312ZM17.1228 294.92H23.2188V297H14.5468V285.8H23.0108V287.88H17.1228V294.92ZM28.9611 297.192C28.0651 297.192 27.2065 297.075 26.3851 296.84C25.5638 296.595 24.9025 296.28 24.4011 295.896L25.2811 293.944C25.7611 294.285 26.3265 294.568 26.9771 294.792C27.6385 295.005 28.3051 295.112 28.9771 295.112C29.4891 295.112 29.8998 295.064 30.2091 294.968C30.5291 294.861 30.7638 294.717 30.9131 294.536C31.0625 294.355 31.1371 294.147 31.1371 293.912C31.1371 293.613 31.0198 293.379 30.7851 293.208C30.5505 293.027 30.2411 292.883 29.8571 292.776C29.4731 292.659 29.0465 292.552 28.5771 292.456C28.1185 292.349 27.6545 292.221 27.1851 292.072C26.7265 291.923 26.3051 291.731 25.9211 291.496C25.5371 291.261 25.2225 290.952 24.9771 290.568C24.7425 290.184 24.6251 289.693 24.6251 289.096C24.6251 288.456 24.7958 287.875 25.1371 287.352C25.4891 286.819 26.0118 286.397 26.7051 286.088C27.4091 285.768 28.2891 285.608 29.3451 285.608C30.0491 285.608 30.7425 285.693 31.4251 285.864C32.1078 286.024 32.7105 286.269 33.2331 286.6L32.4331 288.568C31.9105 288.269 31.3878 288.051 30.8651 287.912C30.3425 287.763 29.8305 287.688 29.3291 287.688C28.8278 287.688 28.4171 287.747 28.0971 287.864C27.7771 287.981 27.5478 288.136 27.4091 288.328C27.2705 288.509 27.2011 288.723 27.2011 288.968C27.2011 289.256 27.3185 289.491 27.5531 289.672C27.7878 289.843 28.0971 289.981 28.4811 290.088C28.8651 290.195 29.2865 290.301 29.7451 290.408C30.2145 290.515 30.6785 290.637 31.1371 290.776C31.6065 290.915 32.0331 291.101 32.4171 291.336C32.8011 291.571 33.1105 291.88 33.3451 292.264C33.5905 292.648 33.7131 293.133 33.7131 293.72C33.7131 294.349 33.5371 294.925 33.1851 295.448C32.8331 295.971 32.3051 296.392 31.6011 296.712C30.9078 297.032 30.0278 297.192 28.9611 297.192ZM35.4843 297V285.8H38.0763V297H35.4843ZM46.1423 297.192C45.2569 297.192 44.4409 297.053 43.6943 296.776C42.9583 296.488 42.3129 296.083 41.7582 295.56C41.2143 295.037 40.7876 294.424 40.4783 293.72C40.1796 293.016 40.0303 292.243 40.0303 291.4C40.0303 290.557 40.1796 289.784 40.4783 289.08C40.7876 288.376 41.2196 287.763 41.7743 287.24C42.3289 286.717 42.9796 286.317 43.7263 286.04C44.4729 285.752 45.2943 285.608 46.1903 285.608C47.1823 285.608 48.0729 285.773 48.8623 286.104C49.6623 286.435 50.3343 286.915 50.8783 287.544L49.2143 289.08C48.8089 288.653 48.3663 288.339 47.8863 288.136C47.4063 287.923 46.8836 287.816 46.3183 287.816C45.7743 287.816 45.2783 287.901 44.8303 288.072C44.3823 288.243 43.9929 288.488 43.6623 288.808C43.3423 289.128 43.0916 289.507 42.9103 289.944C42.7396 290.381 42.6543 290.867 42.6543 291.4C42.6543 291.923 42.7396 292.403 42.9103 292.84C43.0916 293.277 43.3423 293.661 43.6623 293.992C43.9929 294.312 44.3769 294.557 44.8143 294.728C45.2623 294.899 45.7529 294.984 46.2863 294.984C46.7983 294.984 47.2943 294.904 47.7743 294.744C48.2649 294.573 48.7396 294.291 49.1983 293.896L50.6703 295.768C50.0623 296.227 49.3529 296.579 48.5423 296.824C47.7423 297.069 46.9423 297.192 46.1423 297.192ZM48.3023 295.432V291.224H50.6703V295.768L48.3023 295.432ZM53.078 297V285.8H55.222L61.83 293.864H60.79V285.8H63.35V297H61.222L54.598 288.936H55.638V297H53.078Z" fill="#313131"/>
<path d="M149.492 131V119.8H154.58C155.796 119.8 156.868 120.035 157.796 120.504C158.724 120.963 159.449 121.608 159.972 122.44C160.495 123.272 160.756 124.259 160.756 125.4C160.756 126.531 160.495 127.517 159.972 128.36C159.449 129.192 158.724 129.843 157.796 130.312C156.868 130.771 155.796 131 154.58 131H149.492ZM152.084 128.872H154.452C155.199 128.872 155.844 128.733 156.388 128.456C156.943 128.168 157.369 127.763 157.668 127.24C157.977 126.717 158.132 126.104 158.132 125.4C158.132 124.685 157.977 124.072 157.668 123.56C157.369 123.037 156.943 122.637 156.388 122.36C155.844 122.072 155.199 121.928 154.452 121.928H152.084V128.872ZM165.095 124.312H170.487V126.328H165.095V124.312ZM165.287 128.92H171.383V131H162.711V119.8H171.175V121.88H165.287V128.92ZM177.125 131.192C176.229 131.192 175.371 131.075 174.549 130.84C173.728 130.595 173.067 130.28 172.565 129.896L173.445 127.944C173.925 128.285 174.491 128.568 175.141 128.792C175.803 129.005 176.469 129.112 177.141 129.112C177.653 129.112 178.064 129.064 178.373 128.968C178.693 128.861 178.928 128.717 179.077 128.536C179.227 128.355 179.301 128.147 179.301 127.912C179.301 127.613 179.184 127.379 178.949 127.208C178.715 127.027 178.405 126.883 178.021 126.776C177.637 126.659 177.211 126.552 176.741 126.456C176.283 126.349 175.819 126.221 175.349 126.072C174.891 125.923 174.469 125.731 174.085 125.496C173.701 125.261 173.387 124.952 173.141 124.568C172.907 124.184 172.789 123.693 172.789 123.096C172.789 122.456 172.96 121.875 173.301 121.352C173.653 120.819 174.176 120.397 174.869 120.088C175.573 119.768 176.453 119.608 177.509 119.608C178.213 119.608 178.907 119.693 179.589 119.864C180.272 120.024 180.875 120.269 181.397 120.6L180.597 122.568C180.075 122.269 179.552 122.051 179.029 121.912C178.507 121.763 177.995 121.688 177.493 121.688C176.992 121.688 176.581 121.747 176.261 121.864C175.941 121.981 175.712 122.136 175.573 122.328C175.435 122.509 175.365 122.723 175.365 122.968C175.365 123.256 175.483 123.491 175.717 123.672C175.952 123.843 176.261 123.981 176.645 124.088C177.029 124.195 177.451 124.301 177.909 124.408C178.379 124.515 178.843 124.637 179.301 124.776C179.771 124.915 180.197 125.101 180.581 125.336C180.965 125.571 181.275 125.88 181.509 126.264C181.755 126.648 181.877 127.133 181.877 127.72C181.877 128.349 181.701 128.925 181.349 129.448C180.997 129.971 180.469 130.392 179.765 130.712C179.072 131.032 178.192 131.192 177.125 131.192ZM183.648 131V119.8H186.24V131H183.648ZM194.306 131.192C193.421 131.192 192.605 131.053 191.858 130.776C191.122 130.488 190.477 130.083 189.922 129.56C189.378 129.037 188.952 128.424 188.642 127.72C188.344 127.016 188.194 126.243 188.194 125.4C188.194 124.557 188.344 123.784 188.642 123.08C188.952 122.376 189.384 121.763 189.938 121.24C190.493 120.717 191.144 120.317 191.89 120.04C192.637 119.752 193.458 119.608 194.354 119.608C195.346 119.608 196.237 119.773 197.026 120.104C197.826 120.435 198.498 120.915 199.042 121.544L197.378 123.08C196.973 122.653 196.53 122.339 196.05 122.136C195.57 121.923 195.048 121.816 194.482 121.816C193.938 121.816 193.442 121.901 192.994 122.072C192.546 122.243 192.157 122.488 191.826 122.808C191.506 123.128 191.256 123.507 191.074 123.944C190.904 124.381 190.818 124.867 190.818 125.4C190.818 125.923 190.904 126.403 191.074 126.84C191.256 127.277 191.506 127.661 191.826 127.992C192.157 128.312 192.541 128.557 192.978 128.728C193.426 128.899 193.917 128.984 194.45 128.984C194.962 128.984 195.458 128.904 195.938 128.744C196.429 128.573 196.904 128.291 197.362 127.896L198.834 129.768C198.226 130.227 197.517 130.579 196.706 130.824C195.906 131.069 195.106 131.192 194.306 131.192ZM196.466 129.432V125.224H198.834V129.768L196.466 129.432ZM201.242 131V119.8H203.386L209.994 127.864H208.954V119.8H211.514V131H209.386L202.762 122.936H203.802V131H201.242ZM118.046 159V149.912H114.462V147.8H124.222V149.912H120.638V159H118.046ZM128.001 152.312H133.393V154.328H128.001V152.312ZM128.193 156.92H134.289V159H125.617V147.8H134.081V149.88H128.193V156.92ZM141.711 159.192C140.847 159.192 140.042 159.053 139.295 158.776C138.559 158.488 137.919 158.083 137.375 157.56C136.831 157.037 136.405 156.424 136.095 155.72C135.797 155.016 135.647 154.243 135.647 153.4C135.647 152.557 135.797 151.784 136.095 151.08C136.405 150.376 136.831 149.763 137.375 149.24C137.93 148.717 138.575 148.317 139.311 148.04C140.047 147.752 140.853 147.608 141.727 147.608C142.698 147.608 143.573 147.779 144.351 148.12C145.141 148.451 145.802 148.941 146.335 149.592L144.671 151.128C144.287 150.691 143.861 150.365 143.391 150.152C142.922 149.928 142.41 149.816 141.855 149.816C141.333 149.816 140.853 149.901 140.415 150.072C139.978 150.243 139.599 150.488 139.279 150.808C138.959 151.128 138.709 151.507 138.527 151.944C138.357 152.381 138.271 152.867 138.271 153.4C138.271 153.933 138.357 154.419 138.527 154.856C138.709 155.293 138.959 155.672 139.279 155.992C139.599 156.312 139.978 156.557 140.415 156.728C140.853 156.899 141.333 156.984 141.855 156.984C142.41 156.984 142.922 156.877 143.391 156.664C143.861 156.44 144.287 156.104 144.671 155.656L146.335 157.192C145.802 157.843 145.141 158.339 144.351 158.68C143.573 159.021 142.693 159.192 141.711 159.192ZM155.766 147.8H158.358V159H155.766V147.8ZM150.678 159H148.086V147.8H150.678V159ZM155.958 154.408H150.486V152.216H155.958V154.408ZM161.008 159V147.8H163.152L169.76 155.864H168.72V147.8H171.28V159H169.152L162.528 150.936H163.568V159H161.008ZM179.37 159.192C178.484 159.192 177.663 159.048 176.906 158.76C176.159 158.472 175.508 158.067 174.954 157.544C174.41 157.021 173.983 156.408 173.674 155.704C173.375 155 173.226 154.232 173.226 153.4C173.226 152.568 173.375 151.8 173.674 151.096C173.983 150.392 174.415 149.779 174.97 149.256C175.524 148.733 176.175 148.328 176.922 148.04C177.668 147.752 178.479 147.608 179.354 147.608C180.239 147.608 181.05 147.752 181.786 148.04C182.532 148.328 183.178 148.733 183.722 149.256C184.276 149.779 184.708 150.392 185.018 151.096C185.327 151.789 185.482 152.557 185.482 153.4C185.482 154.232 185.327 155.005 185.018 155.72C184.708 156.424 184.276 157.037 183.722 157.56C183.178 158.072 182.532 158.472 181.786 158.76C181.05 159.048 180.244 159.192 179.37 159.192ZM179.354 156.984C179.855 156.984 180.314 156.899 180.73 156.728C181.156 156.557 181.53 156.312 181.85 155.992C182.17 155.672 182.415 155.293 182.586 154.856C182.767 154.419 182.858 153.933 182.858 153.4C182.858 152.867 182.767 152.381 182.586 151.944C182.415 151.507 182.17 151.128 181.85 150.808C181.54 150.488 181.172 150.243 180.746 150.072C180.319 149.901 179.855 149.816 179.354 149.816C178.852 149.816 178.388 149.901 177.962 150.072C177.546 150.243 177.178 150.488 176.858 150.808C176.538 151.128 176.287 151.507 176.106 151.944C175.935 152.381 175.85 152.867 175.85 153.4C175.85 153.923 175.935 154.408 176.106 154.856C176.287 155.293 176.532 155.672 176.842 155.992C177.162 156.312 177.535 156.557 177.962 156.728C178.388 156.899 178.852 156.984 179.354 156.984ZM187.43 159V147.8H190.022V156.888H195.638V159H187.43ZM202.338 159.192C201.453 159.192 200.632 159.048 199.874 158.76C199.128 158.472 198.477 158.067 197.922 157.544C197.378 157.021 196.952 156.408 196.642 155.704C196.344 155 196.194 154.232 196.194 153.4C196.194 152.568 196.344 151.8 196.642 151.096C196.952 150.392 197.384 149.779 197.938 149.256C198.493 148.733 199.144 148.328 199.89 148.04C200.637 147.752 201.448 147.608 202.322 147.608C203.208 147.608 204.018 147.752 204.754 148.04C205.501 148.328 206.146 148.733 206.69 149.256C207.245 149.779 207.677 150.392 207.986 151.096C208.296 151.789 208.45 152.557 208.45 153.4C208.45 154.232 208.296 155.005 207.986 155.72C207.677 156.424 207.245 157.037 206.69 157.56C206.146 158.072 205.501 158.472 204.754 158.76C204.018 159.048 203.213 159.192 202.338 159.192ZM202.322 156.984C202.824 156.984 203.282 156.899 203.698 156.728C204.125 156.557 204.498 156.312 204.818 155.992C205.138 155.672 205.384 155.293 205.554 154.856C205.736 154.419 205.826 153.933 205.826 153.4C205.826 152.867 205.736 152.381 205.554 151.944C205.384 151.507 205.138 151.128 204.818 150.808C204.509 150.488 204.141 150.243 203.714 150.072C203.288 149.901 202.824 149.816 202.322 149.816C201.821 149.816 201.357 149.901 200.93 150.072C200.514 150.243 200.146 150.488 199.826 150.808C199.506 151.128 199.256 151.507 199.074 151.944C198.904 152.381 198.818 152.867 198.818 153.4C198.818 153.923 198.904 154.408 199.074 154.856C199.256 155.293 199.501 155.672 199.81 155.992C200.13 156.312 200.504 156.557 200.93 156.728C201.357 156.899 201.821 156.984 202.322 156.984ZM215.806 159.192C214.921 159.192 214.105 159.053 213.358 158.776C212.622 158.488 211.977 158.083 211.422 157.56C210.878 157.037 210.452 156.424 210.142 155.72C209.844 155.016 209.694 154.243 209.694 153.4C209.694 152.557 209.844 151.784 210.142 151.08C210.452 150.376 210.884 149.763 211.438 149.24C211.993 148.717 212.644 148.317 213.39 148.04C214.137 147.752 214.958 147.608 215.854 147.608C216.846 147.608 217.737 147.773 218.526 148.104C219.326 148.435 219.998 148.915 220.542 149.544L218.878 151.08C218.473 150.653 218.03 150.339 217.55 150.136C217.07 149.923 216.548 149.816 215.982 149.816C215.438 149.816 214.942 149.901 214.494 150.072C214.046 150.243 213.657 150.488 213.326 150.808C213.006 151.128 212.756 151.507 212.574 151.944C212.404 152.381 212.318 152.867 212.318 153.4C212.318 153.923 212.404 154.403 212.574 154.84C212.756 155.277 213.006 155.661 213.326 155.992C213.657 156.312 214.041 156.557 214.478 156.728C214.926 156.899 215.417 156.984 215.95 156.984C216.462 156.984 216.958 156.904 217.438 156.744C217.929 156.573 218.404 156.291 218.862 155.896L220.334 157.768C219.726 158.227 219.017 158.579 218.206 158.824C217.406 159.069 216.606 159.192 215.806 159.192ZM217.966 157.432V153.224H220.334V157.768L217.966 157.432ZM222.742 159V147.8H225.334V159H222.742ZM231.672 159.192C230.776 159.192 229.917 159.075 229.096 158.84C228.275 158.595 227.613 158.28 227.112 157.896L227.992 155.944C228.472 156.285 229.037 156.568 229.688 156.792C230.349 157.005 231.016 157.112 231.688 157.112C232.2 157.112 232.611 157.064 232.92 156.968C233.24 156.861 233.475 156.717 233.624 156.536C233.773 156.355 233.848 156.147 233.848 155.912C233.848 155.613 233.731 155.379 233.496 155.208C233.261 155.027 232.952 154.883 232.568 154.776C232.184 154.659 231.757 154.552 231.288 154.456C230.829 154.349 230.365 154.221 229.896 154.072C229.437 153.923 229.016 153.731 228.632 153.496C228.248 153.261 227.933 152.952 227.688 152.568C227.453 152.184 227.336 151.693 227.336 151.096C227.336 150.456 227.507 149.875 227.848 149.352C228.2 148.819 228.723 148.397 229.416 148.088C230.12 147.768 231 147.608 232.056 147.608C232.76 147.608 233.453 147.693 234.136 147.864C234.819 148.024 235.421 148.269 235.944 148.6L235.144 150.568C234.621 150.269 234.099 150.051 233.576 149.912C233.053 149.763 232.541 149.688 232.04 149.688C231.539 149.688 231.128 149.747 230.808 149.864C230.488 149.981 230.259 150.136 230.12 150.328C229.981 150.509 229.912 150.723 229.912 150.968C229.912 151.256 230.029 151.491 230.264 151.672C230.499 151.843 230.808 151.981 231.192 152.088C231.576 152.195 231.997 152.301 232.456 152.408C232.925 152.515 233.389 152.637 233.848 152.776C234.317 152.915 234.744 153.101 235.128 153.336C235.512 153.571 235.821 153.88 236.056 154.264C236.301 154.648 236.424 155.133 236.424 155.72C236.424 156.349 236.248 156.925 235.896 157.448C235.544 157.971 235.016 158.392 234.312 158.712C233.619 159.032 232.739 159.192 231.672 159.192ZM240.359 159V149.912H236.775V147.8H246.535V149.912H242.951V159H240.359Z" fill="#F3F3F3"/>
<path d="M231.328 297V285.8H236.416C237.632 285.8 238.704 286.035 239.632 286.504C240.56 286.963 241.285 287.608 241.808 288.44C242.331 289.272 242.592 290.259 242.592 291.4C242.592 292.531 242.331 293.517 241.808 294.36C241.285 295.192 240.56 295.843 239.632 296.312C238.704 296.771 237.632 297 236.416 297H231.328ZM233.92 294.872H236.288C237.035 294.872 237.68 294.733 238.224 294.456C238.779 294.168 239.205 293.763 239.504 293.24C239.813 292.717 239.968 292.104 239.968 291.4C239.968 290.685 239.813 290.072 239.504 289.56C239.205 289.037 238.779 288.637 238.224 288.36C237.68 288.072 237.035 287.928 236.288 287.928H233.92V294.872ZM246.931 290.312H252.323V292.328H246.931V290.312ZM247.123 294.92H253.219V297H244.547V285.8H253.011V287.88H247.123V294.92ZM258.485 297L253.653 285.8H256.453L260.677 295.72H259.029L263.317 285.8H265.893L261.045 297H258.485ZM269.212 290.312H274.604V292.328H269.212V290.312ZM269.404 294.92H275.5V297H266.828V285.8H275.292V287.88H269.404V294.92ZM277.562 297V285.8H280.154V294.888H285.77V297H277.562ZM292.471 297.192C291.586 297.192 290.764 297.048 290.007 296.76C289.26 296.472 288.61 296.067 288.055 295.544C287.511 295.021 287.084 294.408 286.775 293.704C286.476 293 286.327 292.232 286.327 291.4C286.327 290.568 286.476 289.8 286.775 289.096C287.084 288.392 287.516 287.779 288.071 287.256C288.626 286.733 289.276 286.328 290.023 286.04C290.77 285.752 291.58 285.608 292.455 285.608C293.34 285.608 294.151 285.752 294.887 286.04C295.634 286.328 296.279 286.733 296.823 287.256C297.378 287.779 297.81 288.392 298.119 289.096C298.428 289.789 298.583 290.557 298.583 291.4C298.583 292.232 298.428 293.005 298.119 293.72C297.81 294.424 297.378 295.037 296.823 295.56C296.279 296.072 295.634 296.472 294.887 296.76C294.151 297.048 293.346 297.192 292.471 297.192ZM292.455 294.984C292.956 294.984 293.415 294.899 293.831 294.728C294.258 294.557 294.631 294.312 294.951 293.992C295.271 293.672 295.516 293.293 295.687 292.856C295.868 292.419 295.959 291.933 295.959 291.4C295.959 290.867 295.868 290.381 295.687 289.944C295.516 289.507 295.271 289.128 294.951 288.808C294.642 288.488 294.274 288.243 293.847 288.072C293.42 287.901 292.956 287.816 292.455 287.816C291.954 287.816 291.49 287.901 291.063 288.072C290.647 288.243 290.279 288.488 289.959 288.808C289.639 289.128 289.388 289.507 289.207 289.944C289.036 290.381 288.951 290.867 288.951 291.4C288.951 291.923 289.036 292.408 289.207 292.856C289.388 293.293 289.634 293.672 289.943 293.992C290.263 294.312 290.636 294.557 291.063 294.728C291.49 294.899 291.954 294.984 292.455 294.984ZM300.531 297V285.8H305.379C306.382 285.8 307.246 285.965 307.971 286.296C308.696 286.616 309.256 287.08 309.651 287.688C310.046 288.296 310.243 289.021 310.243 289.864C310.243 290.696 310.046 291.416 309.651 292.024C309.256 292.632 308.696 293.101 307.971 293.432C307.246 293.752 306.382 293.912 305.379 293.912H301.971L303.123 292.744V297H300.531ZM303.123 293.032L301.971 291.8H305.235C306.035 291.8 306.632 291.629 307.027 291.288C307.422 290.947 307.619 290.472 307.619 289.864C307.619 289.245 307.422 288.765 307.027 288.424C306.632 288.083 306.035 287.912 305.235 287.912H301.971L303.123 286.68V293.032ZM312.094 297V285.8H314.238L319.006 293.704H317.87L322.558 285.8H324.686L324.718 297H322.286L322.27 289.528H322.718L318.974 295.816H317.806L313.982 289.528H314.526V297H312.094ZM329.759 290.312H335.151V292.328H329.759V290.312ZM329.951 294.92H336.047V297H327.375V285.8H335.839V287.88H329.951V294.92ZM338.109 297V285.8H340.253L346.861 293.864H345.821V285.8H348.381V297H346.253L339.629 288.936H340.669V297H338.109ZM353.351 297V287.912H349.767V285.8H359.527V287.912H355.943V297H353.351Z" fill="black"/>
</svg>
