<?xml version="1.0" standalone="no"?>
<!DOCTYPE svg PUBLIC "-//W3C//DTD SVG 20010904//EN"
 "http://www.w3.org/TR/2001/REC-SVG-20010904/DTD/svg10.dtd">
<svg version="1.0" xmlns="http://www.w3.org/2000/svg"
 width="3873.000000pt" height="3873.000000pt" viewBox="0 0 3873.000000 3873.000000"
 preserveAspectRatio="xMidYMid meet">

<g transform="translate(0.000000,3873.000000) scale(0.100000,-0.100000)"
fill="#000000" stroke="none">
<path d="M21415 35384 c-22 -2 -146 -11 -275 -20 -179 -12 -245 -20 -277 -34
-24 -11 -43 -23 -43 -29 0 -5 24 -18 53 -29 41 -16 98 -23 257 -31 316 -18
463 -30 750 -62 604 -67 840 -106 1355 -219 350 -77 722 -157 1220 -260 735
-153 782 -165 1066 -284 380 -158 1867 -821 1890 -842 10 -9 19 -24 22 -36 5
-18 2 -19 -31 -13 -20 4 -113 42 -207 84 -207 95 -248 108 -1080 354 -658 195
-773 231 -813 254 -23 14 -42 27 -40 28 2 2 103 -14 226 -35 241 -40 258 -37
112 23 -206 85 -512 160 -701 173 -128 9 -147 -2 -74 -41 30 -17 55 -33 55
-37 0 -14 -117 -8 -232 12 -113 19 -224 52 -288 85 l-34 18 44 22 c23 12 39
24 34 27 -19 12 -224 58 -342 77 -147 24 -331 36 -398 26 -63 -9 -50 -16 106
-55 126 -32 265 -83 276 -102 10 -15 -317 -4 -581 20 -121 12 -312 25 -425 31
-113 6 -234 13 -270 16 -118 8 -1073 27 -1165 23 -115 -5 -139 -18 -280 -148
-185 -171 -266 -214 -437 -233 -73 -8 -132 -8 -235 1 -175 16 -213 15 -291 -3
-136 -32 -265 -125 -316 -227 -41 -81 -32 -128 29 -154 47 -19 248 -44 361
-44 114 0 152 16 203 84 44 58 104 109 212 179 120 78 162 97 212 97 39 0 51
-6 108 -56 111 -97 144 -102 339 -45 141 41 221 41 356 1 137 -41 241 -57 445
-70 338 -21 889 -80 1044 -111 219 -44 454 -104 585 -150 63 -22 205 -60 315
-85 737 -164 1661 -448 2275 -699 362 -148 879 -385 1101 -504 172 -93 873
-514 943 -566 110 -83 131 -103 120 -114 -7 -8 -127 59 -420 235 -465 279
-578 341 -841 461 -323 147 -1173 495 -1298 532 -73 21 -357 86 -860 196 -165
36 -341 77 -391 90 -112 30 -162 31 -216 4 l-41 -21 -146 22 c-80 12 -184 28
-231 36 -97 16 -190 18 -190 5 0 -25 118 -63 330 -106 441 -90 1351 -310 1490
-361 111 -40 311 -133 456 -212 107 -58 483 -239 679 -327 497 -224 1176 -602
1723 -961 439 -288 1031 -733 1422 -1069 422 -361 993 -980 1463 -1583 232
-298 568 -784 553 -799 -3 -3 -47 37 -98 90 -84 86 -97 96 -138 101 -70 10
-103 37 -171 138 -34 51 -144 203 -244 338 -100 135 -221 306 -270 380 -126
194 -200 286 -365 451 -201 202 -549 489 -593 489 -40 0 -122 46 -182 102 -56
51 -146 118 -160 118 -3 0 4 -19 16 -42 12 -24 106 -129 213 -238 502 -514
544 -558 697 -730 244 -274 587 -730 876 -1165 614 -924 1085 -1868 1418
-2845 442 -1295 729 -2750 811 -4112 15 -258 15 -286 0 -420 -40 -340 -41
-362 -26 -461 18 -109 18 -378 0 -530 -6 -56 -29 -228 -50 -382 -50 -361 -57
-425 -70 -634 -24 -382 -132 -976 -277 -1516 -171 -639 -386 -1242 -615 -1725
-138 -291 -227 -441 -670 -1140 -123 -195 -237 -376 -252 -402 -25 -43 -28
-68 -7 -68 4 0 70 76 147 169 76 93 140 168 142 166 6 -5 -129 -268 -188 -365
-32 -52 -102 -163 -157 -246 -55 -82 -147 -222 -203 -310 -229 -355 -399 -583
-599 -802 -95 -105 -189 -202 -681 -705 -420 -431 -912 -828 -1555 -1257 -662
-441 -1317 -775 -2233 -1137 -700 -276 -1339 -486 -1957 -643 -534 -135 -2037
-442 -2575 -526 -150 -24 -561 -26 -628 -3 -24 8 -44 18 -45 23 -4 20 75 48
160 56 126 12 1026 153 1223 191 30 6 152 35 270 64 282 71 354 86 615 135
397 73 585 119 1307 324 222 63 475 133 563 155 235 61 251 67 725 274 1091
476 1454 655 1912 943 293 184 651 440 958 685 164 131 223 189 214 212 -3 9
-11 17 -17 17 -21 0 -125 -65 -431 -269 -1095 -731 -1605 -1034 -2057 -1225
-1046 -439 -1747 -645 -2979 -872 -199 -37 -281 -47 -440 -55 -237 -12 -405
-29 -1165 -119 -1010 -118 -1108 -125 -1880 -125 -622 0 -717 5 -957 45 -64
11 -168 33 -230 49 -62 16 -160 36 -218 45 -58 8 -260 38 -450 66 -784 116
-1242 205 -1690 331 -779 219 -1668 661 -2960 1472 -233 146 -452 292 -1145
761 -132 89 -264 172 -293 183 l-52 22 -15 -29 c-8 -16 -15 -55 -15 -88 0
-113 35 -157 330 -413 80 -69 201 -179 269 -243 69 -65 135 -125 147 -132 47
-32 76 -90 85 -171 4 -43 11 -93 15 -112 7 -33 6 -34 -12 -20 -11 8 -111 83
-222 167 -112 84 -208 155 -215 158 -8 3 -23 -17 -39 -50 -27 -55 -28 -55 -59
-44 -53 18 -97 71 -104 125 -21 151 -67 212 -258 337 -109 72 -236 191 -369
349 -161 190 -175 204 -313 311 -179 138 -345 306 -427 431 -44 67 -82 113
-116 138 -138 104 -248 248 -451 593 -47 80 -79 124 -93 127 -15 4 -34 -7 -74
-45 -30 -28 -56 -49 -58 -47 -12 11 -164 339 -203 436 -53 133 -83 178 -157
232 -29 22 -65 54 -79 72 l-25 33 43 27 c52 33 79 70 70 98 -10 33 -116 122
-184 155 -87 42 -99 61 -112 176 -22 204 -71 350 -183 545 -86 150 -96 177
-106 298 l-9 99 -155 321 c-218 456 -317 712 -395 1024 -36 143 -196 539 -247
611 -4 6 -49 -20 -74 -44 -41 -38 -98 -57 -129 -44 -38 16 -55 44 -105 172
-24 62 -76 188 -115 280 -106 251 -120 311 -171 778 -55 497 -57 589 -14 655
45 69 47 95 54 625 7 535 9 560 61 730 16 49 23 112 29 255 13 293 52 449 164
659 71 133 109 254 103 322 -5 50 -43 154 -56 154 -5 0 -144 -372 -272 -728
-29 -80 -50 -159 -54 -200 -10 -97 -52 -355 -74 -444 -21 -91 -41 -125 -84
-143 -31 -13 -33 -13 -50 18 -30 55 -8 255 58 537 24 102 46 219 50 260 31
358 78 589 171 843 133 362 254 741 240 754 -8 8 -128 -81 -168 -125 -49 -55
-65 -86 -87 -181 -22 -96 -41 -128 -86 -147 -51 -21 -62 -18 -75 22 -21 63 -7
97 117 274 18 25 105 215 194 422 l162 377 104 137 c73 98 131 190 200 318 53
100 128 240 167 311 153 283 150 275 148 375 l-1 89 86 128 c104 155 196 280
317 433 51 63 134 171 186 240 112 149 271 311 395 404 150 112 626 560 684
644 l22 32 -56 0 c-42 0 -115 -18 -269 -64 -116 -36 -240 -72 -275 -81 -114
-29 -175 -68 -311 -199 -69 -66 -173 -163 -232 -214 -58 -52 -128 -121 -155
-155 -200 -250 -583 -757 -798 -1057 -192 -270 -201 -280 -230 -280 -47 0
-109 76 -107 131 1 41 33 94 121 204 45 55 81 108 81 118 0 9 -22 33 -50 53
-27 20 -50 40 -50 44 0 15 151 274 226 387 111 167 295 392 441 538 88 88 139
147 157 183 25 50 26 52 6 42 -60 -32 -227 -170 -306 -252 -155 -163 -503
-647 -729 -1013 -157 -254 -192 -302 -248 -329 -127 -64 -217 2 -168 123 19
43 57 61 134 61 l65 0 -5 43 c-3 27 3 77 17 132 22 87 22 113 4 240 -5 37 -2
43 44 91 38 40 55 69 76 130 51 144 219 474 293 572 35 47 63 43 124 -20 49
-51 50 -51 69 -32 10 10 107 177 215 369 313 556 406 711 475 799 36 44 182
197 325 338 287 284 273 275 368 241 62 -22 70 -17 128 83 180 306 182 309
323 309 69 1 124 9 226 34 213 53 231 60 310 111 155 101 267 135 503 152 122
9 168 9 203 0 90 -24 129 -17 267 50 156 74 183 78 337 45 215 -47 298 -94
386 -219 28 -40 66 -84 85 -96 52 -36 115 -26 399 66 371 121 594 187 817 242
565 139 904 256 1318 454 160 77 331 175 614 353 384 241 581 387 837 619 170
156 727 702 802 787 168 192 325 482 387 712 38 143 48 232 42 372 -6 158 -33
269 -116 472 -134 329 -154 376 -168 397 -8 13 -54 50 -103 84 -64 43 -126
100 -221 202 -72 79 -135 153 -140 166 -6 16 -4 53 7 110 20 108 13 161 -29
209 -34 39 -83 63 -167 83 -107 25 -117 36 -140 160 -30 162 -115 255 -279
304 -95 28 -106 51 -71 144 11 29 20 61 20 71 0 31 -96 168 -140 200 -24 17
-65 35 -98 41 -126 25 -150 38 -252 135 -108 104 -151 129 -296 174 -236 72
-456 109 -704 118 -273 9 -395 -7 -800 -106 -352 -86 -340 -84 -735 -81 -763
6 -769 6 -1003 -46 -136 -30 -283 -79 -492 -164 -308 -124 -355 -152 -870
-516 -261 -185 -592 -414 -735 -509 -280 -186 -502 -342 -712 -502 -73 -55
-169 -120 -213 -144 -238 -130 -369 -251 -640 -589 -200 -249 -327 -382 -485
-509 -66 -52 -158 -131 -205 -176 -471 -444 -814 -765 -1065 -995 -385 -354
-490 -459 -891 -895 -482 -524 -582 -645 -791 -960 -70 -104 -143 -210 -164
-235 -68 -84 -242 -334 -346 -498 -56 -90 -143 -218 -192 -285 -205 -281 -306
-457 -379 -658 -26 -71 -113 -244 -260 -517 -168 -310 -231 -437 -261 -523
-76 -222 -110 -307 -236 -594 -205 -468 -227 -528 -359 -960 -137 -451 -176
-594 -176 -640 0 -70 2 -71 78 -64 37 3 69 4 71 3 11 -9 -94 -223 -142 -291
-105 -149 -149 -264 -167 -435 -6 -56 -13 -110 -15 -118 -10 -35 -90 -796
-120 -1140 -10 -112 -19 -384 -25 -755 -4 -319 -12 -634 -15 -700 -6 -88 -3
-161 10 -275 19 -173 17 -294 -9 -382 -22 -74 -10 -121 45 -178 22 -23 43 -40
46 -37 2 3 11 31 20 64 13 50 13 75 2 184 -14 147 -8 259 17 315 13 30 17 69
18 174 1 128 7 172 52 410 23 120 40 401 43 705 2 336 14 418 92 640 29 83 32
104 39 282 5 106 12 214 15 240 20 150 44 264 124 588 111 453 216 883 232
955 18 85 58 164 154 304 48 71 105 164 127 207 29 58 44 79 59 79 12 0 19 -7
19 -19 0 -35 -32 -175 -51 -224 -11 -26 -37 -135 -59 -241 -66 -325 -95 -432
-185 -686 -134 -377 -145 -413 -210 -735 -14 -71 -35 -151 -45 -176 -27 -64
-58 -208 -65 -304 -4 -44 -15 -150 -26 -236 -72 -584 -71 -570 -79 -974 -6
-343 -10 -402 -29 -493 -21 -98 -21 -107 -6 -185 19 -99 24 -199 30 -562 2
-154 9 -316 15 -360 6 -44 15 -271 19 -505 9 -466 12 -493 86 -795 42 -171 59
-278 80 -500 20 -213 32 -260 99 -387 31 -59 76 -171 106 -263 29 -88 62 -180
75 -205 12 -25 25 -72 28 -105 9 -87 93 -497 112 -541 8 -20 15 -55 15 -78 0
-65 26 -140 89 -261 93 -177 105 -217 98 -334 -9 -126 1 -177 73 -377 170
-471 321 -846 420 -1044 86 -171 248 -548 330 -765 29 -77 84 -203 122 -279
68 -138 97 -218 118 -328 9 -45 18 -63 45 -87 30 -26 99 -51 109 -40 6 7 -13
162 -25 209 -7 25 -41 108 -76 185 -70 152 -93 225 -93 295 0 41 -5 49 -50 94
-56 55 -101 140 -120 226 -6 30 -14 63 -16 72 -3 10 -32 49 -64 88 -62 74 -77
114 -66 174 7 38 29 62 67 71 60 15 71 -8 300 -625 65 -174 130 -309 290 -605
106 -196 136 -244 166 -263 29 -19 37 -21 44 -10 13 20 11 106 -6 204 -30 168
-73 285 -216 587 -140 296 -162 356 -163 452 -1 70 3 86 28 132 27 48 92 122
99 112 33 -40 223 -398 247 -464 18 -49 44 -108 58 -130 30 -49 82 -105 97
-105 7 0 17 30 23 68 14 80 0 141 -68 312 -38 96 -48 156 -33 196 4 12 18 -9
49 -74 44 -95 48 -99 167 -166 34 -20 54 -40 71 -74 35 -69 152 -179 201 -188
33 -6 41 -4 57 16 26 32 23 52 -26 196 -59 174 -75 216 -294 769 -280 710
-273 689 -279 820 l-5 110 29 28 c29 27 30 27 52 10 13 -11 84 -165 185 -403
204 -480 246 -575 351 -776 46 -89 96 -193 111 -230 43 -109 124 -266 240
-465 59 -101 140 -246 180 -322 40 -75 115 -197 165 -270 51 -72 112 -160 136
-193 23 -34 64 -78 91 -98 105 -77 191 -179 419 -502 154 -218 341 -454 383
-482 19 -13 45 -22 60 -20 24 3 25 5 25 83 0 62 -6 93 -26 140 -14 35 -131
211 -279 420 -430 611 -400 577 -499 557 -99 -21 -106 -19 -149 46 -86 126
-583 1048 -831 1539 -112 221 -132 267 -126 292 6 27 31 59 39 50 2 -2 37 -74
78 -159 72 -148 81 -160 180 -265 69 -74 124 -145 167 -215 334 -547 718
-1099 1100 -1580 156 -198 233 -288 466 -550 230 -258 330 -375 502 -586 133
-164 294 -349 688 -795 582 -657 684 -760 1120 -1124 160 -133 376 -314 480
-401 105 -88 255 -209 335 -270 153 -118 184 -146 178 -164 -5 -15 -470 267
-619 376 -26 19 -79 47 -120 64 -101 41 -152 78 -314 231 -227 213 -290 266
-325 274 -17 4 -34 4 -37 1 -3 -3 -8 -36 -11 -74 -3 -50 0 -76 11 -98 19 -37
388 -400 487 -480 148 -119 488 -361 1165 -831 524 -363 539 -372 658 -373 88
0 152 -22 346 -119 204 -102 312 -147 503 -210 218 -71 439 -171 1051 -477
171 -86 411 -201 532 -256 259 -117 397 -188 520 -269 49 -32 94 -59 101 -59
6 0 60 -21 120 -46 60 -25 147 -58 194 -74 143 -47 610 -197 690 -220 85 -25
155 -49 320 -109 63 -24 183 -60 265 -81 161 -42 555 -124 645 -135 89 -11
127 -24 173 -59 l44 -33 380 -4 c363 -4 382 -3 402 15 12 11 21 23 21 27 0 14
-101 37 -195 44 -258 18 -578 104 -1145 307 -129 46 -275 97 -324 113 -118 38
-191 87 -261 174 -92 114 -161 152 -317 176 -21 3 -50 17 -65 30 -24 21 -26
26 -13 35 26 17 114 11 201 -15 46 -14 170 -41 274 -61 198 -37 229 -44 410
-100 169 -51 230 -63 417 -79 108 -10 207 -25 263 -40 206 -55 448 -90 835
-120 680 -52 1348 -45 2095 21 1152 102 1851 214 2995 484 1074 252 1991 576
3015 1062 362 172 592 292 1125 588 146 81 373 202 505 269 132 66 271 141
310 166 72 47 99 54 129 32 16 -12 14 -16 -23 -59 -31 -35 -127 -98 -410 -268
-345 -208 -376 -229 -485 -330 -88 -80 -149 -126 -244 -182 -281 -167 -567
-311 -1227 -618 -510 -238 -531 -248 -612 -323 -86 -79 -135 -112 -260 -179
-137 -73 -150 -83 -133 -103 22 -27 70 -47 96 -41 13 4 47 24 76 45 28 22 101
60 162 86 129 55 205 102 237 145 18 23 40 35 94 51 208 61 335 108 470 174
141 69 269 115 323 115 13 0 49 20 80 44 93 71 186 124 407 231 116 57 239
119 275 140 43 25 94 43 152 55 146 30 273 99 558 300 168 119 256 148 365
121 46 -12 48 -11 145 38 130 67 136 60 64 -68 -26 -45 -45 -83 -43 -85 9 -9
333 105 400 140 40 21 115 69 166 106 132 95 145 101 207 92 96 -14 108 -6
196 135 32 53 74 113 92 133 40 44 385 345 666 581 262 220 394 342 556 515
200 212 601 674 779 896 89 111 209 257 267 326 165 195 189 229 492 680 368
551 471 717 645 1045 44 83 134 238 202 345 118 190 255 447 361 680 29 63
126 273 215 465 383 822 505 1153 914 2474 159 512 166 537 260 971 90 413
147 734 245 1365 132 850 196 1625 189 2300 -3 349 -31 968 -58 1265 -53 591
-94 847 -245 1555 -125 585 -147 695 -190 947 -44 263 -58 328 -100 473 -35
122 -56 228 -70 357 -11 111 -32 172 -170 503 -149 357 -206 503 -258 656
-122 354 -263 650 -458 958 -32 51 -66 121 -85 180 -50 149 -115 297 -173 396
-30 50 -78 142 -108 205 -30 63 -95 178 -145 255 -49 77 -156 248 -238 380
-275 444 -431 674 -599 879 -45 54 -107 134 -139 178 -70 96 -445 559 -610
753 -188 220 -396 440 -692 728 -151 147 -276 275 -278 285 -3 9 -11 40 -18
67 -16 63 -77 125 -358 365 -407 348 -529 455 -700 617 -95 90 -188 171 -205
180 -37 19 -112 22 -143 4 l-23 -12 33 -28 c17 -15 205 -171 417 -346 460
-380 418 -343 398 -350 -10 -4 -47 16 -99 53 -149 105 -147 97 16 -59 372
-356 680 -678 664 -694 -2 -2 -116 94 -254 212 -699 602 -842 718 -1405 1143
-206 155 -379 287 -385 292 -6 6 11 7 45 2 l55 -6 -65 48 c-346 256 -1090 678
-1618 918 -266 122 -272 125 -478 248 -243 144 -348 184 -499 191 -44 2 -89 9
-100 14 -25 14 -616 230 -755 276 -58 20 -267 85 -465 146 -198 60 -427 133
-510 162 -412 142 -533 180 -680 213 -318 70 -664 128 -1180 196 -170 22 -418
57 -550 77 -233 34 -250 35 -570 38 -181 2 -348 1 -370 -1z m1305 -1053 c0 -5
-7 -12 -16 -15 -22 -9 -24 -8 -24 9 0 8 9 15 20 15 11 0 20 -4 20 -9z m2399
-57 c28 -4 54 -11 58 -17 4 -7 -5 -8 -27 -4 -18 4 -57 7 -86 7 -43 0 -54 3
-54 16 0 13 7 15 29 11 15 -3 51 -9 80 -13z m-20960 -9031 c0 -5 -22 -51 -48
-103 l-49 -95 -11 40 c-21 78 -11 113 42 145 32 20 67 26 66 13z m-83 -779 c5
-28 2 -40 -16 -60 -13 -13 -25 -22 -28 -20 -6 7 21 116 29 116 5 0 11 -16 15
-36z m-71 -243 c-10 -10 -35 31 -35 58 0 13 8 33 18 44 16 19 17 17 20 -38 2
-31 0 -60 -3 -64z m30125 -6005 c-43 -289 -110 -593 -185 -848 -19 -64 -58
-230 -86 -370 -58 -290 -45 -251 -334 -978 -246 -619 -320 -791 -490 -1135
-203 -412 -385 -729 -633 -1100 -108 -163 -272 -394 -308 -434 -3 -3 -9 0 -15
6 -7 7 53 122 204 384 525 916 773 1405 989 1954 127 321 414 1144 542 1555
109 349 268 938 318 1180 l13 65 3 -69 c2 -38 -7 -133 -18 -210z m-25899
-2534 c13 -44 1 -100 -27 -122 -12 -10 -18 -5 -35 34 -18 42 -19 53 -9 104 17
88 19 90 40 55 10 -17 24 -49 31 -71z m191 -275 c30 -25 166 -231 256 -389 55
-95 98 -189 152 -329 12 -31 33 -68 48 -82 26 -25 82 -53 82 -41 0 21 64 291
70 298 12 13 111 -24 135 -50 18 -19 23 -40 28 -111 3 -49 13 -108 21 -133 28
-78 173 -381 379 -790 167 -330 208 -404 252 -452 64 -69 136 -171 244 -346
104 -167 153 -233 595 -796 399 -508 484 -607 732 -841 93 -88 266 -254 384
-370 317 -311 491 -456 1075 -893 187 -141 396 -299 465 -352 155 -121 398
-287 440 -302 23 -8 35 -7 43 1 8 8 -11 33 -76 99 -79 79 -102 112 -79 112 22
0 729 -452 755 -481 9 -12 17 -31 17 -44 0 -34 -41 -88 -84 -109 -50 -25 -80
-16 -256 76 -154 81 -235 132 -590 376 -630 433 -970 688 -1895 1421 -601 476
-748 602 -860 739 -71 85 -89 101 -152 132 -119 58 -157 109 -167 229 -2 29
-9 58 -15 64 -6 6 -36 9 -66 8 -82 -4 -97 10 -135 124 -28 84 -38 101 -82 143
-59 56 -86 106 -123 227 -36 119 -69 189 -146 315 -36 58 -100 167 -142 242
-43 75 -110 181 -150 235 -103 138 -137 197 -243 425 -139 297 -152 310 -242
213 -28 -30 -58 -55 -65 -55 -25 0 -54 44 -127 190 -88 175 -95 195 -125 335
-25 121 -113 346 -149 381 -11 11 -43 29 -69 38 -59 22 -73 43 -98 143 -24 97
-33 111 -130 204 -72 68 -79 79 -79 113 0 30 7 45 34 72 42 42 96 47 138 11z
m-2805 -1803 l65 -46 -39 -40 c-43 -44 -72 -55 -103 -38 -21 11 -50 65 -50 94
0 14 46 76 57 76 3 0 35 -21 70 -46z m7394 -3379 c35 -23 85 -103 77 -124 -4
-14 -81 22 -107 50 -22 23 -61 91 -61 105 0 11 54 -7 91 -31z m13219 -1380 c0
-15 -302 -120 -323 -112 -6 3 3 11 21 19 239 96 288 114 295 111 4 -2 7 -10 7
-18z m-531 -198 c-6 -6 -162 -57 -172 -57 -5 0 -7 5 -5 12 6 16 161 68 172 57
5 -5 8 -10 5 -12z m2226 -440 c-25 -38 -285 -207 -505 -328 -113 -61 -313
-173 -445 -247 -132 -74 -321 -178 -420 -232 -609 -330 -1209 -586 -1698 -726
-138 -39 -172 -41 -207 -15 l-24 19 30 48 c45 74 67 86 276 153 125 40 259 98
593 259 149 72 293 137 320 145 28 8 86 25 130 38 126 35 269 96 565 242 151
74 340 162 420 195 212 88 282 121 512 243 210 112 445 229 460 229 5 0 2 -11
-7 -23z m-8250 -255 c39 -12 88 -28 110 -37 47 -20 38 -28 -55 -46 -128 -24
-351 -11 -456 27 -38 13 -64 44 -64 76 0 7 61 9 198 5 159 -4 210 -9 267 -25z
m9570 -420 c-10 -49 -72 -85 -95 -57 -9 11 0 23 41 55 28 22 54 39 56 36 3 -2
2 -18 -2 -34z m-5035 -920 c0 -20 -74 -51 -320 -134 -487 -164 -1031 -313
-1500 -409 -207 -43 -271 -52 -415 -59 -207 -11 -355 -30 -585 -76 -242 -48
-388 -57 -835 -51 -468 6 -605 20 -605 64 0 17 17 18 233 18 230 1 324 8 690
55 151 20 150 20 303 98 152 78 252 90 914 112 290 10 415 20 535 41 177 31
1316 288 1500 338 89 24 85 24 85 3z"/>
<path d="M26144 34599 c-6 -10 28 -29 50 -29 9 0 16 6 16 14 0 15 -58 28 -66
15z"/>
<path d="M26400 34556 c0 -4 26 -19 58 -32 112 -50 471 -233 772 -394 339
-182 788 -405 797 -396 12 12 -54 104 -121 171 -88 87 -154 122 -348 186 -188
62 -348 143 -493 251 -206 153 -339 205 -547 215 -65 3 -118 3 -118 -1z"/>
<path d="M28164 33669 c-8 -13 -9 -11 53 -43 61 -31 59 -30 67 -11 5 14 -10
23 -91 55 -14 6 -25 5 -29 -1z"/>
<path d="M21547 33632 c-15 -6 -13 -9 15 -19 74 -27 169 -44 278 -50 118 -6
230 2 230 17 0 4 -51 17 -112 29 -118 23 -378 37 -411 23z"/>
<path d="M28499 33531 c-22 -5 -25 -9 -18 -28 4 -11 27 -34 51 -50 109 -74
889 -545 894 -540 11 11 -100 119 -198 194 -170 129 -612 405 -676 422 -15 4
-39 5 -53 2z"/>
<path d="M24660 32822 c0 -13 17 -24 68 -40 83 -27 79 -26 85 -3 4 16 -6 22
-67 40 -86 25 -86 25 -86 3z"/>
<path d="M25486 32645 c-9 -24 112 -72 252 -100 159 -33 140 -12 -51 53 -102
34 -187 62 -190 62 -3 0 -7 -7 -11 -15z"/>
<path d="M32550 30153 c609 -784 1184 -1705 1774 -2838 80 -154 146 -277 146
-273 0 3 -14 46 -31 95 -244 691 -1326 2440 -1908 3081 -126 140 -118 112 19
-65z"/>
<path d="M35833 21790 c0 -30 2 -43 4 -27 2 15 2 39 0 55 -2 15 -4 2 -4 -28z"/>
<path d="M2897 18549 c-29 -17 -38 -44 -21 -68 l15 -21 45 32 c24 17 43 32 41
33 -22 19 -65 32 -80 24z"/>
<path d="M3143 17338 c3 -40 15 -98 27 -128 30 -75 23 -117 -28 -175 -22 -25
-43 -57 -46 -71 -8 -31 28 -114 50 -114 18 0 88 93 113 152 28 61 41 163 30
223 -16 83 -69 156 -133 179 -18 6 -19 2 -13 -66z"/>
<path d="M35201 15673 c-35 -42 -46 -84 -33 -128 8 -28 11 -24 40 64 18 52 30
96 28 98 -2 2 -18 -13 -35 -34z"/>
<path d="M35072 15244 c-39 -60 -64 -136 -69 -214 l-4 -75 30 35 c49 55 72
130 69 216 l-3 73 -23 -35z"/>
<path d="M34831 14572 c-24 -64 -55 -145 -68 -180 -22 -59 -22 -62 -4 -53 27
15 89 88 114 136 23 44 31 165 12 197 -9 14 -19 -5 -54 -100z"/>
<path d="M6920 11370 c0 -133 195 -453 488 -802 67 -81 87 -94 123 -83 20 7
21 12 16 61 -6 59 -26 92 -142 235 -87 107 -121 158 -152 231 -41 96 -80 153
-192 276 -109 119 -141 137 -141 82z"/>
<path d="M8328 10586 c-17 -12 -17 -16 1 -78 47 -172 453 -704 723 -950 51
-46 148 -130 214 -186 67 -56 152 -136 188 -176 73 -82 90 -92 131 -76 25 9
26 13 20 53 -15 90 -53 140 -409 527 -93 102 -292 325 -442 496 -250 286 -367
405 -397 404 -7 0 -20 -7 -29 -14z"/>
<path d="M7790 9956 c0 -68 105 -233 279 -439 52 -62 125 -154 163 -205 55
-73 85 -103 146 -144 182 -122 319 -256 668 -653 399 -455 417 -473 618 -607
125 -84 169 -128 224 -221 55 -95 162 -212 247 -272 33 -23 159 -100 280 -170
278 -162 408 -247 880 -576 209 -146 390 -271 402 -278 13 -6 62 -23 110 -37
109 -32 181 -75 263 -158 71 -73 111 -96 162 -96 47 0 128 29 128 45 0 29 -52
73 -136 114 -194 97 -1087 668 -1468 940 -452 323 -502 365 -572 485 -92 156
-186 255 -574 605 -162 146 -344 316 -405 376 -130 130 -396 432 -621 705
-152 183 -218 248 -271 264 -21 7 -23 4 -23 -31 0 -29 11 -56 45 -108 25 -37
43 -70 40 -73 -15 -15 -142 109 -261 255 -105 130 -203 232 -265 279 -26 19
-49 34 -53 34 -3 0 -6 -15 -6 -34z"/>
<path d="M8082 9858 c2 -17 11 -24 31 -26 26 -3 27 -2 15 22 -15 33 -51 36
-46 4z"/>
<path d="M25806 9274 c-77 -30 -82 -38 -22 -31 30 3 56 13 69 26 12 11 19 22
16 24 -2 2 -30 -6 -63 -19z"/>
<path d="M25023 9037 c-249 -72 -451 -133 -448 -135 17 -17 394 74 634 153
144 48 306 114 276 113 -5 0 -213 -59 -462 -131z"/>
<path d="M7778 9058 c-8 -15 -12 -54 -10 -109 l2 -85 -70 -23 c-41 -13 -70
-28 -70 -36 0 -32 46 -157 86 -236 24 -47 69 -115 99 -152 55 -66 179 -173
235 -202 l28 -14 33 97 c40 113 57 125 88 63 12 -22 31 -66 42 -98 42 -113 97
-178 273 -323 210 -173 259 -211 269 -207 26 8 30 35 13 81 -15 40 -33 58
-114 119 -212 158 -269 232 -301 389 -51 246 -165 424 -428 666 -82 74 -107
92 -132 92 -21 0 -34 -7 -43 -22z"/>
<path d="M8510 7756 c0 -8 4 -17 9 -20 11 -7 33 18 24 27 -12 12 -33 7 -33 -7z"/>
<path d="M28829 7125 c-64 -23 -118 -55 -129 -74 -12 -24 -13 -161 -1 -180 7
-12 15 -10 43 7 39 24 70 77 87 147 7 28 21 65 31 83 21 36 20 36 -31 17z"/>
<path d="M28197 6900 c-47 -29 -56 -43 -37 -55 14 -8 100 52 100 70 0 21 -10
19 -63 -15z"/>
<path d="M28175 6714 c-110 -29 -289 -140 -343 -213 -12 -17 -20 -31 -17 -31
3 0 56 25 118 56 153 77 313 183 296 198 -2 2 -26 -3 -54 -10z"/>
<path d="M27010 6417 c0 -13 8 -31 18 -40 15 -14 21 -15 36 -4 16 12 16 14 -4
40 -27 33 -50 35 -50 4z"/>
<path d="M27471 6337 c-14 -6 -31 -27 -38 -46 l-14 -34 42 6 c42 6 99 48 99
74 0 17 -57 17 -89 0z"/>
<path d="M13954 5339 c93 -110 282 -200 417 -198 38 0 41 2 25 12 -10 7 -59
38 -108 69 -144 94 -267 148 -336 148 l-24 0 26 -31z"/>
<path d="M17603 5299 c-29 -11 -53 -25 -53 -30 0 -13 87 -54 155 -73 74 -20
235 -49 460 -81 94 -14 205 -32 248 -40 43 -8 97 -15 118 -15 47 0 129 19 129
30 0 13 -105 78 -152 93 -24 9 -100 20 -169 26 -343 30 -391 39 -534 95 -55
21 -139 19 -202 -5z"/>
<path d="M14543 5068 c15 -36 79 -69 552 -284 432 -197 595 -244 1171 -339 17
-3 54 0 83 6 73 15 109 1 172 -72 63 -73 83 -84 179 -98 149 -22 459 -51 477
-44 27 9 83 65 83 83 0 28 -29 58 -90 95 -54 33 -73 38 -178 51 -64 7 -169 23
-232 34 -63 12 -183 25 -265 30 -137 8 -176 15 -435 80 -456 114 -564 149
-1106 363 -252 100 -286 111 -372 121 l-52 7 13 -33z"/>
<path d="M16759 4931 c-49 -49 -38 -129 20 -149 32 -11 57 -6 241 53 97 31 97
32 -25 91 -58 29 -80 34 -138 34 -62 0 -71 -3 -98 -29z"/>
<path d="M18874 4818 c-16 -12 -31 -23 -33 -25 -11 -8 26 -34 61 -43 38 -11
99 -1 121 20 12 10 -72 70 -99 70 -12 0 -34 -10 -50 -22z"/>
<path d="M18155 4700 c-27 -4 -74 -15 -104 -24 -72 -21 -126 -20 -180 4 -54
25 -68 25 -108 0 -39 -23 -43 -55 -12 -93 25 -32 55 -41 235 -67 77 -11 196
-31 265 -44 298 -59 387 -71 659 -91 203 -15 298 -26 655 -75 194 -27 295 -27
369 -1 55 19 116 56 116 69 0 24 -180 117 -309 162 -101 34 -45 28 -903 95
l-207 17 -77 -27 c-105 -36 -135 -31 -196 35 -45 49 -48 50 -100 49 -29 -1
-75 -5 -103 -9z"/>
<path d="M17655 4268 c-21 -12 -44 -38 -45 -50 0 -16 53 -66 77 -73 16 -3 62
-27 103 -52 139 -85 199 -114 262 -125 35 -6 76 -21 93 -34 112 -84 289 -134
675 -189 63 -9 147 -28 185 -42 250 -89 191 -80 585 -92 335 -10 360 -10 445
9 136 29 346 97 369 119 18 19 19 26 9 103 -5 46 -8 85 -7 87 3 3 32 10 187
41 50 10 57 14 57 35 0 15 -8 25 -22 30 -13 4 -207 9 -433 10 -363 2 -499 7
-935 31 -406 22 -412 23 -489 79 -40 29 -85 32 -176 10 -85 -21 -206 -19 -301
5 -43 11 -146 24 -229 29 -149 10 -226 26 -297 62 -42 21 -83 24 -113 7z"/>
<path d="M18604 3598 c-53 -41 -57 -62 -19 -101 52 -52 100 -65 316 -86 353
-35 361 -35 400 -16 19 10 36 19 38 21 2 2 -7 20 -19 40 -42 67 -149 97 -500
139 -74 9 -147 18 -161 21 -17 3 -35 -3 -55 -18z"/>
<path d="M19297 3226 c-66 -18 -76 -31 -41 -49 74 -38 333 -107 402 -107 38 0
132 28 132 40 0 24 -22 61 -44 76 -29 18 -260 54 -346 53 -30 0 -77 -6 -103
-13z"/>
</g>
</svg>
